<?xml version="1.0" encoding="UTF-8"?>
<svg xmlns="http://www.w3.org/2000/svg" width="165" height="50" viewBox="0 0 165 50" fill="none">
  <g clip-path="url(#clip0_1_12)">
    <path fill-rule="evenodd" clip-rule="evenodd" d="M10.7859 35.8307H2.17024C0.972119 35.8307 0.00280762 34.8625 0.00280762 33.665V16.3311C0.00280762 15.141 0.972119 14.1653 2.17024 14.1653H10.6741C9.7635 15.3628 9.31084 16.819 9.31084 18.5191H19.668C19.8278 16.7303 20.1207 15.4367 20.552 14.6162C21.3561 13.2413 22.7724 12.5539 24.8066 12.5539C28.0175 12.5539 29.6258 14.2983 29.6258 17.7947V22.2446C15.1738 22.6585 7.94762 25.6448 7.94762 31.2182C7.94762 33.044 8.89551 34.5815 10.7859 35.8307ZM14.1673 11.5634V2.16841C14.1673 0.970933 15.1417 0.00256348 16.3344 0.00256348H33.6674C34.8655 0.00256348 35.8345 0.970933 35.8345 2.16841V11.9699C33.5342 10.5802 29.8812 9.88544 24.8864 9.88544C20.3016 9.88544 16.7286 10.4472 14.1673 11.5634ZM38.0977 14.1653H47.8371C49.0298 14.1653 50.0045 15.141 50.0045 16.3311V33.665C50.0045 34.8625 49.0298 35.8307 47.8371 35.8307H39.3384V19.1843C39.3384 17.159 38.923 15.4885 38.0977 14.1653ZM35.8345 37.2869V47.8351C35.8345 49.0325 34.8655 50.0009 33.6674 50.0009H16.3344C15.1417 50.0009 14.1673 49.0325 14.1673 47.8351V37.3387C15.5198 37.7083 17.0056 37.9005 18.6243 37.9005C20.765 37.9005 22.8522 37.5235 24.8864 36.7843C26.9738 36.0008 28.5022 34.9807 29.4607 33.7241H29.6258V37.2869H35.8345ZM29.6258 26.8718C29.6258 28.6533 29.088 30.213 28.0177 31.5509C26.6811 33.1845 24.8065 33.9976 22.3997 33.9976C19.455 33.9976 17.9852 32.7557 17.9852 30.2647C17.9852 27.2266 21.862 25.4378 29.6258 24.9204V26.8718Z" fill="#60A465"></path>
    <path fill-rule="evenodd" clip-rule="evenodd" d="M65.2377 10.7876C64.5684 10.7876 63.9661 10.6347 63.4306 10.3383C62.8857 10.0419 62.4649 9.64027 62.1589 9.11441C61.853 8.5981 61.7 8.01491 61.7 7.36475C61.7 6.71459 61.853 6.13139 62.1589 5.60553C62.4649 5.08922 62.8857 4.67806 63.4306 4.38167C63.9756 4.08527 64.5779 3.94177 65.2472 3.94177C65.773 3.94177 66.2511 4.02784 66.6814 4.19994C67.1116 4.38161 67.4845 4.63982 67.7905 4.98403L67.169 5.58639C66.6622 5.05096 66.0408 4.79273 65.2855 4.79273C64.7883 4.79273 64.3389 4.898 63.9373 5.12747C63.5357 5.34737 63.2202 5.6533 63.0003 6.0453C62.7709 6.43731 62.6561 6.87713 62.6561 7.36475C62.6561 7.84281 62.7709 8.28262 63.0003 8.67463C63.2202 9.06664 63.5357 9.37257 63.9373 9.60204C64.3389 9.82195 64.7883 9.93666 65.2855 9.93666C66.0312 9.93666 66.6622 9.66898 67.169 9.13355L67.7905 9.73591C67.4845 10.0801 67.1116 10.3382 66.6814 10.5199C66.2415 10.692 65.7636 10.7876 65.2377 10.7876Z" fill="#3A3A35"></path>
    <path fill-rule="evenodd" clip-rule="evenodd" d="M72.0357 10.7876C71.3569 10.7876 70.7545 10.6347 70.2095 10.3383C69.6645 10.0419 69.2439 9.63071 68.9379 9.11441C68.6224 8.58854 68.4694 8.00535 68.4694 7.36475C68.4694 6.71459 68.6224 6.13128 68.9379 5.61498C69.2439 5.08912 69.6645 4.67806 70.2095 4.38167C70.7545 4.08527 71.3569 3.94177 72.0357 3.94177C72.705 3.94177 73.3073 4.08527 73.8523 4.38167C74.3972 4.67806 74.818 5.08922 75.124 5.60553C75.4299 6.13139 75.5829 6.71459 75.5829 7.36475C75.5829 8.01491 75.4299 8.5981 75.124 9.11441C74.818 9.64027 74.3972 10.0419 73.8523 10.3383C73.3073 10.6347 72.705 10.7876 72.0357 10.7876ZM72.0357 9.93666C72.5233 9.93666 72.9727 9.82195 73.3647 9.60204C73.7568 9.37257 74.0627 9.06664 74.2922 8.67463C74.5121 8.28262 74.6268 7.84281 74.6268 7.36475C74.6268 6.87713 74.5121 6.43731 74.2922 6.0453C74.0627 5.6533 73.7568 5.34737 73.3647 5.12747C72.9727 4.898 72.5233 4.79273 72.0357 4.79273C71.5481 4.79273 71.0987 4.898 70.7067 5.12747C70.3051 5.34737 69.9896 5.6533 69.7697 6.0453C69.5403 6.43731 69.4255 6.87713 69.4255 7.36475C69.4255 7.84281 69.5403 8.28262 69.7697 8.67463C69.9896 9.06664 70.3051 9.37257 70.7067 9.60204C71.0987 9.82195 71.5481 9.93666 72.0357 9.93666Z" fill="#3A3A35"></path>
    <path fill-rule="evenodd" clip-rule="evenodd" d="M77.0457 4.01831H78.0018V9.87932H81.6254V10.7111H77.0457V4.01831Z" fill="#3A3A35"></path>
    <path fill-rule="evenodd" clip-rule="evenodd" d="M87.5822 9.87932V10.7111H82.725V4.01831H87.4483V4.85013H83.6812V6.90581H87.0371V7.71849H83.6812V9.87932H87.5822Z" fill="#3A3A35"></path>
    <path fill-rule="evenodd" clip-rule="evenodd" d="M93.7395 7.32647H94.6574V9.93666C94.3227 10.2044 93.9403 10.4147 93.5005 10.5677C93.0607 10.7111 92.6018 10.7876 92.1237 10.7876C91.4449 10.7876 90.8425 10.6347 90.2975 10.3383C89.7525 10.0419 89.3319 9.64027 89.0259 9.11441C88.7104 8.5981 88.5573 8.01491 88.5573 7.36475C88.5573 6.71459 88.7104 6.12183 89.0259 5.60553C89.3319 5.07966 89.7621 4.6685 90.3071 4.38167C90.8521 4.08527 91.4639 3.94177 92.1428 3.94177C92.6782 3.94177 93.1658 4.02784 93.6056 4.19994C94.0359 4.38161 94.4088 4.63025 94.7148 4.97446L94.122 5.56724C93.5866 5.05094 92.9364 4.79273 92.181 4.79273C91.6743 4.79273 91.2154 4.89799 90.8139 5.1179C90.4027 5.3378 90.0872 5.64372 89.8577 6.03573C89.6283 6.42774 89.5134 6.86757 89.5134 7.36475C89.5134 7.84281 89.6283 8.28262 89.8577 8.67463C90.0872 9.06664 90.4027 9.37257 90.8139 9.60204C91.2154 9.82195 91.6647 9.93666 92.1715 9.93666C92.7738 9.93666 93.2901 9.79329 93.7395 9.50645V7.32647Z" fill="#3A3A35"></path>
    <path d="M97.4397 4.01831H96.4836V10.7111H97.4397V4.01831Z" fill="#3A3A35"></path>
    <path fill-rule="evenodd" clip-rule="evenodd" d="M102.469 10.7876C101.79 10.7876 101.188 10.6347 100.643 10.3383C100.098 10.0419 99.6771 9.63071 99.3711 9.11441C99.0556 8.58854 98.9026 8.00535 98.9026 7.36475C98.9026 6.71459 99.0556 6.13128 99.3711 5.61498C99.6771 5.08912 100.098 4.67806 100.643 4.38167C101.188 4.08527 101.79 3.94177 102.469 3.94177C103.138 3.94177 103.741 4.08527 104.286 4.38167C104.831 4.67806 105.251 5.08922 105.557 5.60553C105.863 6.13139 106.016 6.71459 106.016 7.36475C106.016 8.01491 105.863 8.5981 105.557 9.11441C105.251 9.64027 104.831 10.0419 104.286 10.3383C103.741 10.6347 103.138 10.7876 102.469 10.7876ZM102.469 9.93666C102.957 9.93666 103.406 9.82195 103.798 9.60204C104.19 9.37257 104.496 9.06664 104.725 8.67463C104.945 8.28262 105.06 7.84281 105.06 7.36475C105.06 6.87713 104.945 6.43731 104.725 6.0453C104.496 5.6533 104.19 5.34737 103.798 5.12747C103.406 4.898 102.957 4.79273 102.469 4.79273C101.981 4.79273 101.532 4.898 101.14 5.12747C100.738 5.34737 100.423 5.6533 100.203 6.0453C99.9735 6.43731 99.8588 6.87713 99.8588 7.36475C99.8588 7.84281 99.9735 8.28262 100.203 8.67463C100.423 9.06664 100.738 9.37257 101.14 9.60204C101.532 9.82195 101.981 9.93666 102.469 9.93666Z" fill="#3A3A35"></path>
    <path fill-rule="evenodd" clip-rule="evenodd" d="M113.072 10.7876C112.393 10.7876 111.791 10.6347 111.246 10.3383C110.701 10.0419 110.28 9.63071 109.974 9.11441C109.659 8.58854 109.506 8.00535 109.506 7.36475C109.506 6.71459 109.659 6.13128 109.974 5.61498C110.28 5.08912 110.701 4.67806 111.246 4.38167C111.791 4.08527 112.393 3.94177 113.072 3.94177C113.742 3.94177 114.344 4.08527 114.889 4.38167C115.434 4.67806 115.855 5.08922 116.16 5.60553C116.466 6.13139 116.62 6.71459 116.62 7.36475C116.62 8.01491 116.466 8.5981 116.16 9.11441C115.855 9.64027 115.434 10.0419 114.889 10.3383C114.344 10.6347 113.742 10.7876 113.072 10.7876ZM113.072 9.93666C113.56 9.93666 114.009 9.82195 114.401 9.60204C114.793 9.37257 115.099 9.06664 115.329 8.67463C115.549 8.28262 115.663 7.84281 115.663 7.36475C115.663 6.87713 115.549 6.43731 115.329 6.0453C115.099 5.6533 114.793 5.34737 114.401 5.12747C114.009 4.898 113.56 4.79273 113.072 4.79273C112.585 4.79273 112.135 4.898 111.743 5.12747C111.342 5.34737 111.026 5.6533 110.806 6.0453C110.577 6.43731 110.462 6.87713 110.462 7.36475C110.462 7.84281 110.577 8.28262 110.806 8.67463C111.026 9.06664 111.342 9.37257 111.743 9.60204C112.135 9.82195 112.585 9.93666 113.072 9.93666Z" fill="#3A3A35"></path>
    <path fill-rule="evenodd" clip-rule="evenodd" d="M119.038 4.85013V7.183H122.394V8.00525H119.038V10.7111H118.082V4.01831H122.806V4.85013H119.038Z" fill="#3A3A35"></path>
    <path d="M125.11 4.01831H124.154V10.7111H125.11V4.01831Z" fill="#3A3A35"></path>
    <path fill-rule="evenodd" clip-rule="evenodd" d="M130.11 10.7876C129.441 10.7876 128.839 10.6347 128.303 10.3383C127.758 10.0419 127.338 9.64027 127.032 9.11441C126.726 8.5981 126.573 8.01491 126.573 7.36475C126.573 6.71459 126.726 6.13139 127.032 5.60553C127.338 5.08922 127.758 4.67806 128.303 4.38167C128.848 4.08527 129.451 3.94177 130.12 3.94177C130.646 3.94177 131.124 4.02784 131.554 4.19994C131.984 4.38161 132.357 4.63982 132.663 4.98403L132.042 5.58639C131.535 5.05096 130.913 4.79273 130.158 4.79273C129.661 4.79273 129.212 4.898 128.81 5.12747C128.409 5.34737 128.093 5.6533 127.873 6.0453C127.644 6.43731 127.529 6.87713 127.529 7.36475C127.529 7.84281 127.644 8.28262 127.873 8.67463C128.093 9.06664 128.409 9.37257 128.81 9.60204C129.212 9.82195 129.661 9.93666 130.158 9.93666C130.904 9.93666 131.535 9.66898 132.042 9.13355L132.663 9.73591C132.357 10.0801 131.984 10.3382 131.554 10.5199C131.114 10.692 130.636 10.7876 130.11 10.7876Z" fill="#3A3A35"></path>
    <path d="M134.987 4.01831H134.03V10.7111H134.987V4.01831Z" fill="#3A3A35"></path>
    <path fill-rule="evenodd" clip-rule="evenodd" d="M141.259 9.03794H137.702L136.966 10.7111H135.981L139.012 4.01831H139.958L142.999 10.7111H141.995L141.259 9.03794ZM140.924 8.27299L139.48 4.99357L138.037 8.27299H140.924Z" fill="#3A3A35"></path>
    <path fill-rule="evenodd" clip-rule="evenodd" d="M143.993 4.01831H144.949V9.87932H148.573V10.7111H143.993V4.01831Z" fill="#3A3A35"></path>
    <path fill-rule="evenodd" clip-rule="evenodd" d="M152.245 4.01831H155.065C155.773 4.01831 156.404 4.15211 156.949 4.43895C157.494 4.71622 157.924 5.10821 158.23 5.61495C158.526 6.1217 158.679 6.705 158.679 7.36473C158.679 8.01489 158.526 8.59807 158.23 9.10481C157.924 9.61156 157.494 10.0036 156.949 10.2904C156.404 10.5677 155.773 10.7111 155.065 10.7111H152.245V4.01831ZM155.008 9.87932C155.553 9.87932 156.031 9.77408 156.442 9.56373C156.853 9.35338 157.169 9.05705 157.388 8.67461C157.608 8.30172 157.723 7.86191 157.723 7.36473C157.723 6.86755 157.608 6.42773 157.388 6.04528C157.169 5.67239 156.853 5.37595 156.442 5.16561C156.031 4.95526 155.553 4.85013 155.008 4.85013H153.201V9.87932H155.008Z" fill="#3A3A35"></path>
    <path fill-rule="evenodd" clip-rule="evenodd" d="M164.999 9.87932V10.7111H160.142V4.01831H164.865V4.85013H161.098V6.90581H164.454V7.71849H161.098V9.87932H164.999Z" fill="#3A3A35"></path>
    <path fill-rule="evenodd" clip-rule="evenodd" d="M63.2012 16.6104V18.9434H66.5572V19.7656H63.2012V22.4714H62.2451V15.7786H66.9682V16.6104H63.2012Z" fill="#3A3A35"></path>
    <path fill-rule="evenodd" clip-rule="evenodd" d="M72.2748 20.7982H68.718L67.9818 22.4714H66.997L70.0278 15.7786H70.9745L74.0149 22.4714H73.011L72.2748 20.7982ZM71.9401 20.0334L70.4964 16.7538L69.0527 20.0334H71.9401Z" fill="#3A3A35"></path>
    <path fill-rule="evenodd" clip-rule="evenodd" d="M79.4838 22.4714L78.04 20.4158C77.8584 20.4254 77.7246 20.4349 77.6194 20.4349H75.9653V22.4714H75.0092V15.7786H77.6194C78.4895 15.7786 79.1683 15.9794 79.6655 16.4001C80.1627 16.8112 80.4113 17.3849 80.4113 18.1116C80.4113 18.6279 80.287 19.0677 80.0288 19.431C79.7707 19.7943 79.4073 20.0524 78.9389 20.2245L80.526 22.4714H79.4838ZM77.5907 19.6222C78.193 19.6222 78.6616 19.4884 78.9771 19.2303C79.2927 18.9625 79.4552 18.5896 79.4552 18.1116C79.4552 17.6239 79.2927 17.251 78.9771 16.9929C78.6616 16.7347 78.193 16.6104 77.5907 16.6104H75.9653V19.6222H77.5907Z" fill="#3A3A35"></path>
    <path fill-rule="evenodd" clip-rule="evenodd" d="M88.1655 22.4714L88.1559 17.5952L85.7369 21.6587H85.2971L82.8781 17.6239V22.4714H81.9603V15.7786H82.7442L85.5361 20.4827L88.2898 15.7786H89.0737L89.0833 22.4714H88.1655Z" fill="#3A3A35"></path>
    <path fill-rule="evenodd" clip-rule="evenodd" d="M95.3555 20.7982H91.7986L91.0624 22.4714H90.0777L93.1085 15.7786H94.0551L97.0956 22.4714H96.0916L95.3555 20.7982ZM95.0208 20.0334L93.577 16.7538L92.1334 20.0334H95.0208Z" fill="#3A3A35"></path>
    <path fill-rule="evenodd" clip-rule="evenodd" d="M100.987 22.5479C100.318 22.5479 99.7153 22.3949 99.1799 22.0985C98.6349 21.8021 98.2142 21.4005 97.9082 20.8747C97.6022 20.3584 97.4493 19.7751 97.4493 19.1249C97.4493 18.4747 97.6022 17.882 97.9082 17.3657C98.2142 16.8494 98.6349 16.4382 99.1799 16.1418C99.7249 15.8454 100.327 15.702 100.996 15.702C101.522 15.702 102 15.7881 102.431 15.9602C102.861 16.1419 103.234 16.4 103.54 16.7442L102.918 17.3465C102.412 16.8111 101.79 16.553 101.035 16.553C100.538 16.553 100.088 16.6581 99.6866 16.8876C99.285 17.1075 98.9695 17.4134 98.7496 17.8054C98.5201 18.1975 98.4054 18.6373 98.4054 19.1249C98.4054 19.6029 98.5201 20.0428 98.7496 20.4348C98.9695 20.8268 99.285 21.1328 99.6866 21.3623C100.088 21.5822 100.538 21.6969 101.035 21.6969C101.78 21.6969 102.412 21.4292 102.918 20.8938L103.54 21.4962C103.234 21.8404 102.861 22.0985 102.431 22.2801C101.991 22.4522 101.513 22.5479 100.987 22.5479Z" fill="#3A3A35"></path>
    <path fill-rule="evenodd" clip-rule="evenodd" d="M109.764 21.6396V22.4714H104.907V15.7785H109.63V16.6104H105.863V18.666H109.219V19.4787H105.863V21.6396H109.764ZM107.861 13.9906H109.028L107.422 15.2336H106.561L107.861 13.9906Z" fill="#3A3A35"></path>
    <path fill-rule="evenodd" clip-rule="evenodd" d="M114.086 22.548C113.197 22.548 112.499 22.2898 112.001 21.783C111.504 21.2667 111.256 20.5401 111.256 19.584V15.7786H112.212V19.5457C112.212 20.9799 112.843 21.697 114.095 21.697C114.707 21.697 115.176 21.5153 115.501 21.1615C115.826 20.8078 115.988 20.2724 115.988 19.5457V15.7786H116.916V19.584C116.916 20.5401 116.667 21.2763 116.17 21.783C115.673 22.2898 114.975 22.548 114.086 22.548Z" fill="#3A3A35"></path>
    <path fill-rule="evenodd" clip-rule="evenodd" d="M120.081 16.6104H117.786V15.7786H123.322V16.6104H121.027V22.4714H120.081V16.6104Z" fill="#3A3A35"></path>
    <path d="M125.32 15.7786H124.364V22.4714H125.32V15.7786Z" fill="#3A3A35"></path>
    <path fill-rule="evenodd" clip-rule="evenodd" d="M130.321 22.5479C129.651 22.5479 129.049 22.3949 128.514 22.0985C127.969 21.8021 127.548 21.4005 127.242 20.8747C126.936 20.3584 126.783 19.7751 126.783 19.1249C126.783 18.4747 126.936 17.882 127.242 17.3657C127.548 16.8494 127.969 16.4382 128.514 16.1418C129.059 15.8454 129.661 15.702 130.33 15.702C130.856 15.702 131.334 15.7881 131.764 15.9602C132.195 16.1419 132.568 16.4 132.874 16.7442L132.252 17.3465C131.745 16.8111 131.124 16.553 130.369 16.553C129.871 16.553 129.422 16.6581 129.02 16.8876C128.619 17.1075 128.303 17.4134 128.083 17.8054C127.854 18.1975 127.739 18.6373 127.739 19.1249C127.739 19.6029 127.854 20.0428 128.083 20.4348C128.303 20.8268 128.619 21.1328 129.02 21.3623C129.422 21.5822 129.871 21.6969 130.369 21.6969C131.114 21.6969 131.745 21.4292 132.252 20.8938L132.874 21.4962C132.568 21.8404 132.195 22.0985 131.764 22.2801C131.325 22.4522 130.847 22.5479 130.321 22.5479Z" fill="#3A3A35"></path>
    <path fill-rule="evenodd" clip-rule="evenodd" d="M137.119 22.5479C136.44 22.5479 135.838 22.3949 135.293 22.0985C134.748 21.8021 134.327 21.391 134.021 20.8747C133.705 20.3488 133.552 19.7655 133.552 19.1249C133.552 18.4747 133.705 17.8915 134.021 17.3752C134.327 16.8494 134.748 16.4382 135.293 16.1418C135.838 15.8454 136.44 15.702 137.119 15.702C137.788 15.702 138.39 15.8454 138.935 16.1418C139.48 16.4382 139.901 16.8494 140.207 17.3657C140.513 17.882 140.666 18.4747 140.666 19.1249C140.666 19.7751 140.513 20.3584 140.207 20.8747C139.901 21.4005 139.48 21.8021 138.935 22.0985C138.39 22.3949 137.788 22.5479 137.119 22.5479ZM137.119 21.6969C137.606 21.6969 138.056 21.5822 138.448 21.3623C138.84 21.1328 139.146 20.8268 139.375 20.4348C139.595 20.0428 139.71 19.6029 139.71 19.1249C139.71 18.6373 139.595 18.1975 139.375 17.8054C139.146 17.4134 138.84 17.1075 138.448 16.8876C138.056 16.6581 137.606 16.553 137.119 16.553C136.631 16.553 136.182 16.6581 135.79 16.8876C135.388 17.1075 135.073 17.4134 134.853 17.8054C134.623 18.1975 134.509 18.6373 134.509 19.1249C134.509 19.6029 134.623 20.0428 134.853 20.4348C135.073 20.8268 135.388 21.1328 135.79 21.3623C136.182 21.5822 136.631 21.6969 137.119 21.6969Z" fill="#3A3A35"></path>
    <path fill-rule="evenodd" clip-rule="evenodd" d="M144.079 22.5479C143.572 22.5479 143.094 22.4618 142.626 22.3088C142.157 22.1559 141.784 21.9551 141.517 21.7065L141.871 20.9607C142.129 21.1901 142.454 21.3718 142.855 21.5152C143.247 21.6586 143.659 21.7352 144.079 21.7352C144.634 21.7352 145.045 21.6395 145.322 21.4483C145.599 21.2571 145.733 21.0085 145.733 20.7025C145.733 20.473 145.657 20.2819 145.513 20.1384C145.36 19.995 145.179 19.8899 144.959 19.8134C144.739 19.7369 144.423 19.6508 144.022 19.5552C143.515 19.4309 143.114 19.3066 142.808 19.1919C142.492 19.0676 142.234 18.8764 142.014 18.6278C141.794 18.3792 141.679 18.035 141.679 17.6143C141.679 17.2509 141.775 16.9354 141.966 16.6486C142.148 16.3617 142.435 16.1323 142.817 15.9602C143.2 15.7881 143.678 15.702 144.242 15.702C144.634 15.702 145.026 15.7499 145.408 15.855C145.791 15.9506 146.116 16.1036 146.393 16.2948L146.077 17.0598C145.8 16.8781 145.494 16.7442 145.179 16.6486C144.863 16.5625 144.548 16.5147 144.242 16.5147C143.697 16.5147 143.295 16.6104 143.028 16.8112C142.75 17.0024 142.616 17.2605 142.616 17.576C142.616 17.8055 142.693 17.9872 142.846 18.1306C142.999 18.274 143.19 18.3887 143.419 18.4652C143.639 18.5513 143.945 18.6278 144.337 18.7234C144.844 18.8381 145.246 18.9624 145.552 19.0867C145.858 19.2015 146.125 19.3926 146.345 19.6412C146.565 19.8898 146.67 20.2245 146.67 20.6452C146.67 20.9894 146.575 21.3145 146.384 21.6013C146.192 21.8977 145.905 22.1272 145.513 22.2897C145.121 22.4618 144.643 22.5479 144.079 22.5479Z" fill="#3A3A35"></path>
    <path fill-rule="evenodd" clip-rule="evenodd" d="M62.2451 27.5388H65.0656C65.7731 27.5388 66.4041 27.6727 66.9491 27.95C67.4941 28.2368 67.9244 28.6288 68.2304 29.1356C68.5268 29.6423 68.6797 30.2255 68.6797 30.8852C68.6797 31.5354 68.5268 32.1186 68.2304 32.6253C67.9244 33.1321 67.4941 33.5242 66.9491 33.811C66.4041 34.0883 65.7731 34.2317 65.0656 34.2317H62.2451V27.5388ZM65.0081 33.3998C65.5531 33.3998 66.0312 33.2947 66.4423 33.0844C66.8534 32.874 67.1691 32.5776 67.389 32.1951C67.6089 31.8127 67.7236 31.3824 67.7236 30.8852C67.7236 30.3881 67.6089 29.9482 67.389 29.5658C67.1691 29.1833 66.8534 28.8869 66.4423 28.6765C66.0312 28.4758 65.5531 28.3706 65.0081 28.3706H63.2012V33.3998H65.0081Z" fill="#3A3A35"></path>
    <path fill-rule="evenodd" clip-rule="evenodd" d="M74.9997 33.3998V34.2317H70.1426V27.5388H74.8658V28.3706H71.0988V30.4263H74.4546V31.239H71.0988V33.3998H74.9997Z" fill="#3A3A35"></path>
    <path fill-rule="evenodd" clip-rule="evenodd" d="M79.1204 27.5388H80.0765V33.3998H83.7003V34.2317H79.1204V27.5388Z" fill="#3A3A35"></path>
    <path fill-rule="evenodd" clip-rule="evenodd" d="M89.0928 32.5584H85.5361L84.7998 34.2317H83.815L86.8459 27.5388H87.7925L90.8329 34.2317H89.829L89.0928 32.5584ZM88.7582 31.7839L87.3144 28.5141L85.8707 31.7839H88.7582Z" fill="#3A3A35"></path>
    <path fill-rule="evenodd" clip-rule="evenodd" d="M97.0095 27.5388C97.8796 27.5388 98.5585 27.7396 99.0556 28.1507C99.5528 28.5714 99.8013 29.1356 99.8013 29.8622C99.8013 30.5889 99.5528 31.1625 99.0556 31.5832C98.5585 31.9943 97.8796 32.1951 97.0095 32.1951H95.3555V34.2317H94.3994V27.5388H97.0095ZM96.9808 31.3729C97.5832 31.3729 98.0516 31.239 98.3672 30.9808C98.6827 30.7227 98.8452 30.3499 98.8452 29.8622C98.8452 29.3842 98.6827 29.0113 98.3672 28.7531C98.0516 28.495 97.5832 28.3706 96.9808 28.3706H95.3555V31.3729H96.9808Z" fill="#3A3A35"></path>
    <path fill-rule="evenodd" clip-rule="evenodd" d="M105.682 34.2317L104.238 32.176C104.056 32.1855 103.922 32.1951 103.817 32.1951H102.163V34.2317H101.207V27.5388H103.817C104.687 27.5388 105.366 27.7396 105.863 28.1507C106.36 28.5714 106.609 29.1356 106.609 29.8622C106.609 30.3881 106.485 30.8183 106.227 31.1911C105.968 31.5449 105.605 31.8127 105.137 31.9752L106.724 34.2317H105.682ZM103.788 31.3824C104.391 31.3824 104.859 31.2485 105.175 30.9904C105.49 30.7227 105.653 30.3499 105.653 29.8622C105.653 29.3842 105.49 29.0113 105.175 28.7531C104.859 28.495 104.391 28.3706 103.788 28.3706H102.163V31.3824H103.788Z" fill="#3A3A35"></path>
    <path fill-rule="evenodd" clip-rule="evenodd" d="M111.179 34.3082C110.5 34.3082 109.898 34.1552 109.353 33.8588C108.808 33.5624 108.387 33.1513 108.081 32.635C107.766 32.1091 107.613 31.5259 107.613 30.8853C107.613 30.2352 107.766 29.652 108.081 29.1261C108.387 28.6098 108.808 28.1986 109.353 27.9022C109.898 27.6058 110.5 27.4529 111.179 27.4529C111.848 27.4529 112.451 27.6058 112.996 27.9022C113.541 28.1986 113.961 28.6098 114.267 29.1261C114.573 29.6424 114.726 30.2352 114.726 30.8853C114.726 31.5259 114.573 32.1187 114.267 32.635C113.961 33.1513 113.541 33.5624 112.996 33.8588C112.451 34.1552 111.848 34.3082 111.179 34.3082ZM111.179 33.4478C111.667 33.4478 112.116 33.3425 112.508 33.1226C112.9 32.8931 113.206 32.5872 113.436 32.1952C113.655 31.8032 113.77 31.3634 113.77 30.8853C113.77 30.3977 113.655 29.9579 113.436 29.5659C113.206 29.1739 112.9 28.8679 112.508 28.6385C112.116 28.4186 111.667 28.3134 111.179 28.3134C110.692 28.3134 110.242 28.4186 109.85 28.6385C109.449 28.8679 109.133 29.1739 108.913 29.5659C108.684 29.9579 108.569 30.3977 108.569 30.8853C108.569 31.3634 108.684 31.8032 108.913 32.1952C109.133 32.5872 109.449 32.8931 109.85 33.1226C110.242 33.3425 110.692 33.4478 111.179 33.4478Z" fill="#3A3A35"></path>
    <path fill-rule="evenodd" clip-rule="evenodd" d="M121.792 27.5388L118.857 34.2317H117.91L114.965 27.5388H115.998L118.408 33.0365L120.836 27.5388H121.792Z" fill="#3A3A35"></path>
    <path d="M123.599 27.5388H122.643V34.2317H123.599V27.5388Z" fill="#3A3A35"></path>
    <path fill-rule="evenodd" clip-rule="evenodd" d="M131.363 27.5388V34.2317H130.579L126.563 29.2407V34.2317H125.607V27.5388H126.391L130.407 32.5202V27.5388H131.363Z" fill="#3A3A35"></path>
    <path fill-rule="evenodd" clip-rule="evenodd" d="M136.363 34.3082C135.694 34.3082 135.092 34.1552 134.556 33.8588C134.011 33.5624 133.591 33.1513 133.285 32.635C132.979 32.1187 132.826 31.5259 132.826 30.8853C132.826 30.2352 132.979 29.6424 133.285 29.1261C133.591 28.6098 134.011 28.1986 134.556 27.9022C135.101 27.6058 135.704 27.4529 136.373 27.4529C136.899 27.4529 137.377 27.5484 137.807 27.7205C138.237 27.8926 138.61 28.1508 138.916 28.5046L138.295 29.0974C137.788 28.5715 137.167 28.3134 136.411 28.3134C135.914 28.3134 135.465 28.4186 135.063 28.6385C134.661 28.8679 134.346 29.1739 134.126 29.5659C133.897 29.9579 133.782 30.3977 133.782 30.8853C133.782 31.3634 133.897 31.8032 134.126 32.1952C134.346 32.5872 134.661 32.8931 135.063 33.1226C135.465 33.3425 135.914 33.4478 136.411 33.4478C137.157 33.4478 137.788 33.18 138.295 32.6541L138.916 33.2565C138.61 33.6007 138.237 33.8589 137.807 34.0406C137.367 34.2127 136.889 34.3082 136.363 34.3082Z" fill="#3A3A35"></path>
    <path d="M141.24 27.5388H140.284V34.2317H141.24V27.5388Z" fill="#3A3A35"></path>
    <path fill-rule="evenodd" clip-rule="evenodd" d="M147.512 32.5584H143.955L143.219 34.2317H142.234L145.265 27.5388H146.211L149.252 34.2317H148.248L147.512 32.5584ZM147.177 31.7839L145.733 28.5141L144.29 31.7839H147.177Z" fill="#3A3A35"></path>
    <path fill-rule="evenodd" clip-rule="evenodd" d="M62.2451 39.2896H65.0656C65.7731 39.2896 66.4041 39.4329 66.9491 39.7102C67.4941 39.997 67.9244 40.389 68.2304 40.8958C68.5268 41.4025 68.6797 41.9858 68.6797 42.636C68.6797 43.2957 68.5268 43.8789 68.2304 44.3856C67.9244 44.8924 67.4941 45.2844 66.9491 45.5616C66.4041 45.8485 65.7731 45.9824 65.0656 45.9824H62.2451V39.2896ZM65.0081 45.1506C65.5531 45.1506 66.0312 45.0453 66.4423 44.835C66.8534 44.6246 67.1691 44.3379 67.389 43.9554C67.6089 43.573 67.7236 43.1331 67.7236 42.636C67.7236 42.1388 67.6089 41.7085 67.389 41.3261C67.1691 40.9436 66.8534 40.6472 66.4423 40.4368C66.0312 40.2265 65.5531 40.1214 65.0081 40.1214H63.2012V45.1506H65.0081Z" fill="#3A3A35"></path>
    <path fill-rule="evenodd" clip-rule="evenodd" d="M74.9997 45.1506V45.9824H70.1426V39.2896H74.8658V40.1214H71.0988V42.177H74.4546V42.9897H71.0988V45.1506H74.9997Z" fill="#3A3A35"></path>
    <path fill-rule="evenodd" clip-rule="evenodd" d="M83.3848 44.3092H79.8279L79.0918 45.9824H78.107L81.1379 39.2896H82.0845L85.1249 45.9824H84.121L83.3848 44.3092ZM83.0502 43.5442L81.6064 40.2648L80.1627 43.5442H83.0502Z" fill="#3A3A35"></path>
    <path fill-rule="evenodd" clip-rule="evenodd" d="M86.1193 39.2896H87.0754V45.1506H90.6992V45.9824H86.1193V39.2896Z" fill="#3A3A35"></path>
    <path d="M92.7548 39.2896H91.7986V45.9824H92.7548V39.2896Z" fill="#3A3A35"></path>
    <path fill-rule="evenodd" clip-rule="evenodd" d="M97.7552 46.0589C97.0859 46.0589 96.4836 45.9155 95.9482 45.6191C95.4032 45.3227 94.9825 44.9115 94.6765 44.3952C94.3706 43.8789 94.2176 43.2862 94.2176 42.636C94.2176 41.9858 94.3706 41.4025 94.6765 40.8862C94.9825 40.3699 95.4032 39.9589 95.9482 39.6625C96.4932 39.3661 97.0955 39.213 97.7648 39.213C98.2906 39.213 98.7687 39.3087 99.1989 39.4808C99.6292 39.6529 100.002 39.9111 100.308 40.2553L99.6866 40.8576C99.1798 40.3318 98.5584 40.064 97.803 40.064C97.3059 40.064 96.8564 40.1787 96.4549 40.3986C96.0533 40.6281 95.7378 40.9341 95.5179 41.3261C95.2884 41.7181 95.1737 42.1579 95.1737 42.636C95.1737 43.1236 95.2884 43.5634 95.5179 43.9554C95.7378 44.3475 96.0533 44.6534 96.4549 44.8733C96.8564 45.1027 97.3059 45.2079 97.803 45.2079C98.5488 45.2079 99.1798 44.9402 99.6866 44.4048L100.308 45.0071C100.002 45.3514 99.6292 45.619 99.1989 45.7911C98.7591 45.9728 98.281 46.0589 97.7552 46.0589Z" fill="#3A3A35"></path>
    <path fill-rule="evenodd" clip-rule="evenodd" d="M105.777 44.3092H102.22L101.484 45.9824H100.499L103.53 39.2896H104.477L107.517 45.9824H106.513L105.777 44.3092ZM105.443 43.5442L103.999 40.2648L102.555 43.5442H105.443Z" fill="#3A3A35"></path>
    <path fill-rule="evenodd" clip-rule="evenodd" d="M114.267 39.2896V45.9824H113.483L109.468 40.9914V45.9824H108.512V39.2896H109.296L113.311 44.2805V39.2896H114.267Z" fill="#3A3A35"></path>
    <path fill-rule="evenodd" clip-rule="evenodd" d="M117.604 40.1214H115.31V39.2896H120.845V40.1214H118.551V45.9824H117.604V40.1214Z" fill="#3A3A35"></path>
    <path fill-rule="evenodd" clip-rule="evenodd" d="M126.745 45.1506V45.9824H121.888V39.2896H126.611V40.1214H122.844V42.177H126.2V42.9897H122.844V45.1506H126.745Z" fill="#3A3A35"></path>
  </g>
  <defs>
    <clipPath id="clip0_1_12">
      <rect width="165" height="50" fill="white"></rect>
    </clipPath>
  </defs>
</svg>
