<?xml version="1.0" encoding="UTF-8"?>
<svg xmlns="http://www.w3.org/2000/svg" width="201" height="70" viewBox="0 0 201 70" fill="none">
  <g clip-path="url(#clip0_10_225)">
    <mask id="mask0_10_225" style="mask-type:luminance" maskUnits="userSpaceOnUse" x="0" y="0" width="201" height="70">
      <path d="M200.182 0H0V70H200.182V0Z" fill="white"></path>
    </mask>
    <g mask="url(#mask0_10_225)">
      <path d="M38.0752 68.4772V44.1098H27.4156C26.5744 44.1098 25.8928 43.4281 25.8928 42.587V30.4046H1.52537C0.684232 30.4046 0 31.0862 0 31.9274V43.4539C0 43.8731 0.172344 44.2744 0.478448 44.56L26.9731 69.5833C27.2561 69.8508 27.6291 70 28.0201 70H36.5524C37.3935 70 38.0752 69.3183 38.0752 68.4772Z" fill="#006293"></path>
      <path d="M21.5739 27.359H4.31375C1.9318 27.359 0 25.4272 0 23.0452V5.7851C0 3.40058 1.9318 1.46878 4.31375 1.46878H21.5739C23.9558 1.46878 25.8876 3.40058 25.8876 5.78253V23.0427C25.8876 25.4246 23.9558 27.3564 21.5739 27.3564" fill="#6CBE99"></path>
      <path d="M62.6945 70H45.4344C43.0524 70 41.1206 68.0682 41.1206 65.6862V48.4261C41.1206 46.0442 43.0524 44.1098 45.4344 44.1098H62.6945C65.0764 44.1098 67.0082 46.0416 67.0082 48.4261V65.6862C67.0082 68.0682 65.0764 70 62.6945 70Z" fill="#6CBE99"></path>
      <path d="M28.936 2.99158V27.359H39.5956C40.4368 27.359 41.1184 28.0406 41.1184 28.8818V41.0642H65.4858C66.327 41.0642 67.0086 40.3825 67.0086 39.5414V28.0149C67.0086 27.5956 66.8363 27.1944 66.5302 26.9088L40.0381 1.88549C39.7551 1.61797 39.3821 1.46878 38.9937 1.46878H30.4614C29.6203 1.46878 28.9386 2.15044 28.9386 2.99158" fill="#006293"></path>
      <path d="M191.539 19.5392C191.539 21.2009 191.204 22.6542 190.533 23.9018C189.861 25.1494 188.959 26.1011 187.819 26.7571C186.68 27.413 185.427 27.7423 184.061 27.7423C182.695 27.7423 181.447 27.4156 180.321 26.7571C179.194 26.1011 178.296 25.1494 177.628 23.9018C176.956 22.6568 176.622 21.188 176.622 19.5006C176.622 17.8132 176.956 16.3907 177.628 15.1586C178.296 13.9264 179.197 12.9875 180.321 12.3445C181.447 11.7014 182.692 11.3799 184.061 11.3799C185.429 11.3799 186.68 11.7091 187.819 12.365C188.959 13.021 189.864 13.9676 190.533 15.1997C191.202 16.4319 191.539 17.8801 191.539 19.5418M172.884 19.5006C172.884 21.7256 173.34 23.7089 174.25 25.4503C175.161 27.1918 176.408 28.5448 177.99 29.512C179.572 30.4766 181.339 30.9602 183.297 30.9602C185.254 30.9602 186.867 30.5383 188.303 29.6946C189.735 28.8509 190.816 27.786 191.539 26.4973V30.5975H195.238V8.56319H191.539V12.5837C190.842 11.3233 189.782 10.2789 188.362 9.44806C186.942 8.6172 185.265 8.20049 183.336 8.20049C181.406 8.20049 179.603 8.66865 178.008 9.60754C176.413 10.5464 175.161 11.866 174.25 13.5689C173.34 15.2717 172.884 17.2473 172.884 19.498M164.601 30.5949H168.259V8.56319H164.601V30.5949ZM166.492 4.98512C167.161 4.98512 167.732 4.74332 168.2 4.2623C168.668 3.77871 168.905 3.18965 168.905 2.49256C168.905 1.79547 168.671 1.20641 168.2 0.722816C167.729 0.239224 167.161 0 166.492 0C165.823 0 165.206 0.241796 164.722 0.722816C164.239 1.20641 164 1.79547 164 2.49256C164 3.18965 164.241 3.77871 164.722 4.2623C165.206 4.74589 165.795 4.98512 166.492 4.98512ZM160.018 11.5805V8.56576H154.269V3.01474H150.611V8.56319H147.755V11.5779H150.611V24.5629C150.611 26.7082 151.12 28.249 152.139 29.1853C153.157 30.1242 154.685 30.5924 156.723 30.5924H160.02V27.4953H157.327C156.2 27.4953 155.411 27.2741 154.955 26.8317C154.5 26.3892 154.271 25.633 154.271 24.5603V11.5753H160.02L160.018 11.5805ZM136.859 30.9576C138.441 30.9576 139.841 30.6824 141.06 30.1345C142.279 29.5866 143.223 28.8278 143.894 27.8632C144.563 26.8985 144.9 25.813 144.9 24.6066C144.875 23.2665 144.504 22.1809 143.794 21.3501C143.084 20.5192 142.233 19.8967 141.242 19.48C140.25 19.0659 138.963 18.6415 137.384 18.2145C136.124 17.8672 135.138 17.5508 134.428 17.2704C133.718 16.99 133.127 16.6145 132.659 16.1438C132.19 15.6756 131.954 15.0788 131.954 14.3534C131.954 13.4428 132.342 12.7046 133.119 12.1413C133.896 11.5779 134.94 11.2975 136.255 11.2975C137.675 11.2975 138.806 11.6474 139.653 12.3419C140.496 13.039 140.959 13.965 141.039 15.1148H144.697C144.589 12.9695 143.786 11.2821 142.284 10.05C140.782 8.81784 138.812 8.20049 136.373 8.20049C134.791 8.20049 133.384 8.47573 132.152 9.02363C130.92 9.5741 129.968 10.3175 129.297 11.2538C128.625 12.1927 128.291 13.2242 128.291 14.3509C128.291 15.7708 128.659 16.918 129.397 17.7875C130.135 18.6595 131.018 19.3154 132.052 19.7578C133.083 20.2003 134.416 20.6376 136.052 21.0646C137.847 21.5199 139.174 21.9829 140.031 22.451C140.887 22.9192 141.317 23.6369 141.317 24.6015C141.317 25.5661 140.916 26.3172 140.111 26.9346C139.305 27.5519 138.207 27.858 136.813 27.858C135.311 27.858 134.099 27.5107 133.176 26.8137C132.25 26.1166 131.735 25.2188 131.627 24.1205H127.848C127.928 25.4606 128.358 26.6465 129.135 27.6779C129.911 28.7094 130.971 29.5146 132.311 30.0908C133.652 30.667 135.167 30.9551 136.854 30.9551M120.697 17.9727H106.786C106.974 15.8814 107.718 14.248 109.017 13.0673C110.316 11.8892 111.892 11.2975 113.742 11.2975C115.028 11.2975 116.201 11.5599 117.261 12.0821C118.321 12.6043 119.157 13.3682 119.774 14.374C120.391 15.3798 120.697 16.5785 120.697 17.9727ZM124.476 18.7366C124.476 16.7251 124.041 14.9245 123.169 13.3297C122.297 11.7348 121.058 10.4821 119.45 9.57153C117.842 8.66093 115.993 8.20564 113.901 8.20564C111.81 8.20564 109.86 8.66865 108.212 9.59211C106.563 10.5156 105.282 11.8377 104.371 13.5534C103.46 15.2692 103.005 17.2653 103.005 19.5443C103.005 21.8234 103.473 23.8272 104.412 25.5558C105.351 27.2844 106.642 28.6194 108.291 29.5557C109.94 30.4946 111.81 30.9628 113.899 30.9628C116.525 30.9628 118.725 30.2991 120.492 28.9718C122.261 27.6445 123.44 25.9236 124.029 23.8066H120.088C119.658 25.0388 118.915 26.024 117.858 26.7622C116.798 27.5005 115.478 27.8683 113.896 27.8683C111.967 27.8683 110.326 27.2587 108.97 26.0394C107.617 24.8201 106.871 23.125 106.74 20.954H124.35C124.43 20.1771 124.471 19.4389 124.471 18.7418M94.725 2.5723V14.8756H80.4513V2.5723H76.7935V30.5949H80.4513V17.8903H94.725V30.5949H98.3828V2.5723H94.725Z" fill="#006293"></path>
      <path d="M191.377 47.2043C189.795 47.2043 188.367 47.5129 187.094 48.1277C185.82 48.7451 184.822 49.6145 184.097 50.7412V39.8861H180.439V69.6373H184.097V57.4549C184.097 55.1501 184.665 53.3932 185.805 52.1868C186.944 50.9804 188.478 50.3785 190.409 50.3785C192.341 50.3785 193.813 50.9624 194.911 52.1277C196.009 53.2929 196.56 54.9752 196.56 57.1745V69.6373H200.179V56.6498C200.179 54.6125 199.798 52.8839 199.034 51.464C198.27 50.0441 197.218 48.9792 195.878 48.2666C194.538 47.5567 193.036 47.2017 191.374 47.2017M176.059 50.6229V47.6081H170.309V42.0597H166.652V47.6081H163.796V50.6229H166.652V63.6078C166.652 65.7531 167.161 67.2939 168.18 68.2303C169.198 69.1691 170.726 69.6373 172.763 69.6373H176.061V66.5402H173.368C172.241 66.5402 171.452 66.319 170.996 65.8766C170.541 65.4342 170.312 64.6779 170.312 63.6053V50.6203H176.061L176.059 50.6229ZM155.997 69.6373H159.655V39.8861H155.997V69.6373ZM146.348 58.5816C146.348 60.2433 146.014 61.6966 145.343 62.9442C144.671 64.1917 143.768 65.1435 142.629 65.7994C141.489 66.4554 140.237 66.7846 138.871 66.7846C137.505 66.7846 136.257 66.4579 135.131 65.7994C134.004 65.1435 133.106 64.1917 132.437 62.9442C131.766 61.6966 131.432 60.2304 131.432 58.543C131.432 56.8555 131.766 55.4331 132.437 54.2009C133.106 52.9688 134.004 52.0299 135.131 51.3868C136.257 50.7438 137.502 50.4222 138.871 50.4222C140.239 50.4222 141.489 50.7515 142.629 51.4074C143.768 52.0659 144.674 53.01 145.343 54.2421C146.011 55.4742 146.348 56.9224 146.348 58.5841M127.694 58.543C127.694 60.768 128.149 62.7513 129.06 64.4927C129.971 66.2367 131.218 67.5872 132.798 68.5544C134.38 69.519 136.149 70.0026 138.104 70.0026C140.059 70.0026 141.675 69.5807 143.11 68.737C144.543 67.8933 145.623 66.8283 146.346 65.5396V69.6399H150.045V47.6081H146.346V51.6286C145.649 50.3682 144.589 49.3238 143.169 48.493C141.749 47.6621 140.072 47.248 138.143 47.248C136.214 47.248 134.41 47.7162 132.816 48.655C131.221 49.5939 129.968 50.9135 129.057 52.6164C128.147 54.3193 127.692 56.2948 127.692 58.5455M120.697 57.015H106.786C106.974 54.9237 107.718 53.2903 109.017 52.1096C110.316 50.9315 111.892 50.3399 113.742 50.3399C115.028 50.3399 116.201 50.6023 117.261 51.1245C118.321 51.6466 119.157 52.4106 119.774 53.4164C120.391 54.4221 120.697 55.6208 120.697 57.015ZM124.476 57.779C124.476 55.77 124.041 53.9668 123.169 52.372C122.297 50.7772 121.058 49.5245 119.45 48.6139C117.842 47.7033 115.993 47.248 113.901 47.248C111.81 47.248 109.86 47.711 108.212 48.6345C106.563 49.5579 105.282 50.8801 104.371 52.5958C103.46 54.3115 103.005 56.3076 103.005 58.5867C103.005 60.8658 103.473 62.8696 104.412 64.5982C105.351 66.3267 106.642 67.6618 108.291 68.5981C109.94 69.537 111.81 70.0051 113.899 70.0051C116.525 70.0051 118.725 69.3415 120.492 68.0142C122.261 66.6869 123.44 64.966 124.029 62.849H120.088C119.658 64.0811 118.915 65.0663 117.858 65.8046C116.798 66.5428 115.478 66.9107 113.896 66.9107C111.967 66.9107 110.326 66.301 108.97 65.0818C107.617 63.8625 106.871 62.1673 106.74 59.9963H124.35C124.43 59.2195 124.471 58.4812 124.471 57.7841M94.725 41.6147V53.918H80.4513V41.6147H76.7935V69.6373H80.4513V56.9327H94.725V69.6373H98.3828V41.6147H94.725Z" fill="#006293"></path>
    </g>
  </g>
  <defs>
    <clipPath id="clip0_10_225">
      <rect width="200.182" height="70" fill="white"></rect>
    </clipPath>
  </defs>
</svg>
