<?xml version="1.0" encoding="utf-8"?>
<!-- Generator: Adobe Illustrator 26.1.0, SVG Export Plug-In . SVG Version: 6.00 Build 0)  -->
<svg version="1.1" id="Capa_1" xmlns="http://www.w3.org/2000/svg" xmlns:xlink="http://www.w3.org/1999/xlink" x="0px" y="0px"
	 viewBox="0 0 666.8 340.7" style="enable-background:new 0 0 666.8 340.7;" xml:space="preserve">
<style type="text/css">
	.st0{display:none;fill:#E0E0E0;}
	.st1{display:none;fill:#CEE6EF;}
	.st2{fill:#253887;}
	.st3{fill:#FFD008;}
	.st4{fill:#00A19A;}
	.st5{fill:#E20E18;}
	.st6{fill:#3BA9E0;}
	.st7{fill:#FCBF06;}
	.st8{fill:#06589C;}
	.st9{fill:#31AD68;}
	.st10{fill:#008E39;}
	.st11{fill:#F39208;}
	.st12{fill:#95C122;}
	.st13{fill:#D0D0D0;}
	.st14{fill:#929292;}
	.st15{fill:#575756;}
	.st16{fill:#706F6F;}
	.st17{fill:#BDBCBC;}
	.st18{fill:#4A4A49;}
	.st19{fill:#A8A8A7;}
	.st20{fill:#FFFFFF;}
</style>
<g>
	<g>
		<path class="st2" d="M360.4,182.3c2.3-3.2,3.4-7.1,3.4-11.7c0-3.3-0.7-6.4-2-9c-1.3-2.6-3.6-5.1-6.8-7.3
			c-3.1-2.2-7.3-4.2-12.5-6.2c-4.2-1.5-7.4-2.9-9.4-4.1c-1.9-1.1-3.2-2.3-3.8-3.4c-0.6-1.1-0.9-2.4-0.9-3.9c0-2.3,1.1-4.1,3.2-5.6
			c2.3-1.6,5.5-2.3,9.6-2.3c3.2,0,6.2,0.4,9.1,1.3c2.9,0.9,5.4,1.9,7.6,3.2l1.2,0.7l4.5-10.3l-1.1-0.5c-3.2-1.5-6.4-2.7-9.8-3.6
			c-3.3-0.8-7.1-1.3-11.3-1.3c-5.2,0-9.6,0.9-13.3,2.5c-3.7,1.7-6.6,4-8.5,6.8c-1.9,2.9-2.9,6.1-2.9,9.6c0,3.5,0.7,6.5,2,9.1
			c1.3,2.6,3.5,4.9,6.5,6.9c2.9,1.9,6.8,3.8,11.6,5.7c4.3,1.6,7.6,3.1,9.8,4.5c2.1,1.3,3.5,2.6,4.1,3.9c0.7,1.3,1,2.8,1,4.5
			c0,3-1.2,5.2-3.6,7c-2.5,1.8-6.1,2.7-10.5,2.7c-3.8,0-7.1-0.6-9.9-1.8c-2.8-1.2-5.4-2.8-7.7-4.6l-1.1-0.9l-6,10.1l0.9,0.7
			c2.8,2.2,6.3,4,10.3,5.3c4,1.3,8.6,2,13.5,2c5,0,9.5-0.8,13.4-2.5C354.9,188,358.1,185.5,360.4,182.3z"/>
		<path class="st2" d="M429.9,182.1h-1.6c-1.2,0-2.3-0.3-3.3-0.9c-1-0.6-1.2-2.4-1.2-3.8v-40.1h-10.6v2.9c-1.4-0.9-2.9-1.8-4.5-2.5
			c-2.5-1.1-5.4-1.6-8.5-1.6c-5,0-9.4,1.3-13.2,3.8c-3.8,2.5-6.8,5.9-9,10.2c-2.1,4.2-3.2,9.1-3.2,14.4c0,5.6,1.1,10.5,3.2,14.6
			c2.2,4.2,5.1,7.4,8.8,9.7c3.7,2.3,7.8,3.4,12.3,3.4c4.2,0,7.8-1,10.6-2.8c2-1.3,3.7-2.8,5-4.3c1.9,4.3,5.9,6.4,11.9,6.4h0.9
			L429.9,182.1z M412.4,176.1c-1.4,1.6-3,2.9-5,4c-4.5,2.5-10,2.1-14-0.5c-2.2-1.5-4-3.6-5.3-6.2c-1.3-2.7-1.9-5.8-1.9-9.3
			c0-3.6,0.7-6.8,1.9-9.5c1.3-2.6,3-4.7,5.2-6.2c2.2-1.5,4.8-2.2,7.6-2.2c2.2,0,4.3,0.4,6.3,1.1c1.8,0.6,3.5,1.5,5,2.5V176.1z"/>
		<path class="st2" d="M467.1,180.6c-0.8,0.4-1.7,0.7-2.9,1c-1.1,0.3-2.3,0.4-3.4,0.4c-2.3,0-4-0.7-5.2-2.1
			c-1.3-1.5-1.9-3.9-1.9-7.1v-57.2h-11.3v58.1c0,4.3,0.8,7.8,2.3,10.6c1.5,2.8,3.7,4.8,6.3,6.1c2.6,1.2,5.5,1.8,8.7,1.8
			c2.2,0,4.2-0.2,6-0.6c1.8-0.4,3.4-0.9,4.6-1.5l1-0.4l-2.9-9.6L467.1,180.6z"/>
		<path class="st2" d="M515.9,139.4c-4-2.3-8.6-3.4-13.6-3.4c-5,0-9.6,1.1-13.6,3.4c-4.1,2.3-7.3,5.6-9.6,9.7
			c-2.3,4.2-3.5,9.2-3.5,14.9c0,5.4,1.2,10.3,3.5,14.5c2.3,4.2,5.5,7.6,9.6,9.9c4,2.4,8.7,3.6,13.7,3.6c5.1,0,9.7-1.2,13.7-3.5
			c4-2.3,7.2-5.7,9.6-9.9c2.3-4.2,3.5-9.2,3.5-14.8c0-5.6-1.2-10.6-3.6-14.8C523.1,144.9,519.9,141.7,515.9,139.4z M513.5,176.9
			c-2.7,3.2-6.3,4.8-11.2,4.8c-2.9,0-5.5-0.8-7.7-2.4c-2.3-1.6-4.1-3.8-5.5-6.5c-1.4-2.7-2-5.8-2-9c0-5.3,1.4-9.6,4-12.8
			c2.7-3.2,6.3-4.7,11.2-4.7c2.9,0,5.5,0.8,7.7,2.4c2.3,1.6,4.1,3.8,5.5,6.5c1.4,2.7,2,5.7,2,8.9
			C517.5,169.3,516.1,173.7,513.5,176.9z"/>
		<path class="st2" d="M591.3,182.1c-1.2,0-2.3-0.4-3.3-1.1c-0.9-0.6-1.3-2.2-1.3-4.6v-39.2h-11.3v39.2c-1.8,1.6-3.8,2.8-6,3.8
			c-2.4,1-4.8,1.5-7.4,1.5c-2.9,0-5.1-0.9-6.5-2.7c-1.5-1.9-2.3-4.7-2.3-8.4v-33.4h-11.3v34.6c0,4.9,0.9,8.8,2.6,11.8
			c1.8,3,4.1,5.2,6.9,6.6c2.8,1.3,5.8,2,8.9,2c3.7,0,7.1-0.8,10.3-2.3c2.6-1.3,4.9-2.8,7-4.7c2,4.2,5.9,6.3,11.8,6.3h0.9l2.5-9.4
			H591.3z"/>
		<path class="st2" d="M327.8,208.5h-4.1L313,235.1l3.2,1.3l3.1-7.8h12.7l3.1,7.9l3.4-1.4L327.8,208.5z M320.4,225.4l5.2-13.2
			l5.2,13.2H320.4z"/>
		<path class="st2" d="M345.3,207.2c-0.8,0-1.4,0.2-1.8,0.7c-0.4,0.4-0.7,1-0.7,1.8c0,0.7,0.2,1.2,0.7,1.7c0.5,0.5,1.1,0.7,1.7,0.7
			c0.8,0,1.4-0.2,1.8-0.7c0.4-0.5,0.7-1.1,0.7-1.8c0-0.7-0.2-1.3-0.7-1.8C346.5,207.4,346,207.2,345.3,207.2z"/>
		<path class="st2" d="M343.6,237.9c0,2.8-1.1,4.2-3.3,4.2c-0.5,0-1-0.1-1.5-0.2c-0.5-0.2-0.9-0.3-1.2-0.6l-0.9,2.9
			c1.1,0.6,2.4,0.9,4,0.9c1.2,0,2.3-0.2,3.3-0.7c1-0.5,1.7-1.2,2.3-2.2c0.6-1,0.9-2.3,0.9-3.9v-22.7h-3.5V237.9z"/>
		<path class="st2" d="M371.3,230.7v-15.1h-3.5V231c-0.8,0.7-1.7,1.3-2.7,1.7c-1,0.4-2,0.6-3.1,0.6c-1.3,0-2.3-0.4-3-1.3
			c-0.7-0.9-1-2.1-1-3.7v-12.8h-3.5v13.3c0,1.9,0.3,3.3,1,4.5c0.7,1.1,1.5,1.9,2.6,2.4c1,0.5,2.2,0.7,3.3,0.7c1.4,0,2.7-0.3,3.9-0.9
			c1.2-0.6,2.3-1.4,3.2-2.3c0.6,1.9,2.1,2.9,4.5,2.9l0.7-2.8c-0.6,0-1.1-0.2-1.6-0.5C371.5,232.6,371.3,231.9,371.3,230.7z"/>
		<path class="st2" d="M389.8,215.1c-1.6,0-2.9,0.4-4.1,1.1c-1.1,0.7-2.1,1.7-2.8,2.8v-3.4h-3.4V236h3.5v-13.5
			c0.8-1.2,1.7-2.2,2.8-3c1.1-0.9,2.2-1.3,3.4-1.3c1.2,0,2.2,0.4,2.9,1.3c0.7,0.9,1,2.1,1,3.5V236h3.5v-13.3c0-2.3-0.6-4.1-1.7-5.5
			C393.8,215.8,392.1,215.1,389.8,215.1z"/>
		<path class="st2" d="M413.4,233.1c-0.6,0.2-1.2,0.3-1.9,0.3c-0.9,0-1.7-0.3-2.3-0.9c-0.6-0.6-1-1.7-1-3.2v-9.9h5.7v-3.1h-5.7v-6.4
			h-2.7l-0.7,6.4h-3.6v3.1h3.5v9.6c0,2.4,0.6,4.3,1.7,5.6c1.1,1.3,2.7,1.9,4.7,1.9c1,0,1.9-0.2,2.8-0.5c0.9-0.3,1.6-0.6,2.1-0.9
			l-1-2.8C414.6,232.6,414,232.9,413.4,233.1z"/>
		<path class="st2" d="M437.2,231.1v-15.5H434v1.7c-0.7-0.6-1.5-1.1-2.5-1.5c-1-0.4-2-0.6-3.2-0.6c-1.9,0-3.6,0.5-5,1.4
			c-1.5,1-2.6,2.2-3.4,3.9c-0.8,1.6-1.2,3.5-1.2,5.5c0,2.1,0.4,4,1.2,5.6c0.8,1.6,1.9,2.8,3.3,3.7c1.4,0.9,2.9,1.3,4.6,1.3
			c1.6,0,2.9-0.3,4-1c1-0.7,1.9-1.5,2.5-2.3c0.5,2,2,3.1,4.6,3.1l0.7-2.8c-0.6,0-1.1-0.1-1.6-0.5
			C437.4,232.7,437.2,232.1,437.2,231.1z M433.6,230.8c-0.6,0.7-1.4,1.3-2.2,1.8c-0.9,0.5-1.8,0.7-2.8,0.7c-1.2,0-2.3-0.3-3.3-1
			c-1-0.6-1.7-1.5-2.3-2.7c-0.6-1.1-0.8-2.4-0.8-3.9c0-1.5,0.3-2.8,0.8-4c0.6-1.1,1.3-2,2.3-2.7c1-0.6,2.1-1,3.3-1
			c0.9,0,1.8,0.2,2.7,0.5c0.9,0.3,1.6,0.7,2.3,1.2V230.8z"/>
		<path class="st2" d="M468.7,215.1c-1.7,0-3,0.4-4.1,1.3c-1.1,0.8-2.1,1.9-2.9,3.1c-0.4-1.3-1.1-2.4-2.2-3.1c-1-0.8-2.4-1.2-4-1.2
			c-1.4,0-2.7,0.4-3.9,1.1c-1.1,0.7-2.1,1.7-2.8,2.8v-3.4h-3.4V236h3.5v-13.5c0.8-1.2,1.7-2.2,2.7-3c1-0.9,2.1-1.3,3.3-1.3
			c1.2,0,2.1,0.4,2.7,1.3c0.7,0.9,1,2,1,3.4V236h3.5v-13.4c0.8-1.2,1.6-2.2,2.7-3.1s2.1-1.3,3.3-1.3c1.2,0,2.1,0.4,2.7,1.3
			c0.7,0.9,1,2,1,3.4V236h3.5v-13.3c0-2.3-0.5-4.1-1.6-5.5C472.6,215.8,470.9,215.1,468.7,215.1z"/>
		<path class="st2" d="M495.3,216.4c-1.3-0.9-2.9-1.3-4.9-1.3c-1.8,0-3.4,0.5-4.8,1.4c-1.4,0.9-2.5,2.2-3.2,3.8
			c-0.8,1.6-1.2,3.4-1.2,5.5c0,3.4,0.9,6,2.6,7.9c1.7,1.9,4,2.8,7,2.8c1.5,0,2.8-0.1,4-0.4c1.2-0.3,2.2-0.6,3.2-1l-0.8-3
			c-0.9,0.4-1.8,0.7-2.7,1c-0.9,0.2-2,0.4-3.2,0.4c-1.8,0-3.3-0.5-4.4-1.6c-1.1-1.1-1.8-2.6-2-4.5h14.3c0.1-0.9,0.1-1.8,0.1-2.7
			c0-1.7-0.3-3.3-1-4.8C497.6,218.4,496.6,217.3,495.3,216.4z M484.7,224.4c0.2-2,0.8-3.6,1.8-4.6c1-1.1,2.3-1.6,3.8-1.6
			c1.8,0,3.1,0.5,4.1,1.6c1,1.1,1.5,2.6,1.5,4.6H484.7z"/>
		<path class="st2" d="M515.4,215.1c-1.6,0-2.9,0.4-4.1,1.1c-1.1,0.7-2.1,1.7-2.8,2.8v-3.4h-3.4V236h3.5v-13.5
			c0.8-1.2,1.7-2.2,2.8-3c1.1-0.9,2.2-1.3,3.4-1.3c1.2,0,2.2,0.4,2.9,1.3c0.7,0.9,1,2.1,1,3.5V236h3.5v-13.3c0-2.3-0.6-4.1-1.7-5.5
			C519.4,215.8,517.7,215.1,515.4,215.1z"/>
		<path class="st2" d="M539,233.1c-0.6,0.2-1.2,0.3-1.9,0.3c-0.9,0-1.7-0.3-2.3-0.9c-0.6-0.6-1-1.7-1-3.2v-9.9h5.7v-3.1h-5.7v-6.4
			h-2.7l-0.7,6.4h-3.6v3.1h3.5v9.6c0,2.4,0.6,4.3,1.7,5.6c1.1,1.3,2.7,1.9,4.7,1.9c1,0,1.9-0.2,2.8-0.5c0.9-0.3,1.6-0.6,2.1-0.9
			l-1-2.8C540.1,232.6,539.6,232.9,539,233.1z"/>
	</g>
	<g>
		<g>
			<path class="st3" d="M231.4,240.6l58.6-58.6H274l-61.6,61.6C219,243.1,225.8,241.8,231.4,240.6z"/>
		</g>
		<polygon class="st4" points="182,73.9 182,89.9 274,181.9 290,181.9 		"/>
		<polygon class="st2" points="73.9,181.9 89.9,181.9 182,89.9 182,73.9 		"/>
		
			<rect x="266.5" y="189.7" transform="matrix(0.7092 -0.705 0.705 0.7092 -59.5859 246.225)" class="st5" width="4.3" height="11.3"/>
		
			<rect x="260.5" y="195.7" transform="matrix(0.709 -0.7052 0.7052 0.709 -65.5799 243.8085)" class="st5" width="4.3" height="11.3"/>
		
			<rect x="254.4" y="201.8" transform="matrix(0.7089 -0.7053 0.7053 0.7089 -71.5988 241.3297)" class="st5" width="4.3" height="11.3"/>
		
			<rect x="248.4" y="207.8" transform="matrix(0.709 -0.7052 0.7052 0.709 -77.636 238.8133)" class="st5" width="4.3" height="11.3"/>
		<g>
			<path class="st5" d="M152.3,244.4l-62.4-62.4H73.9l67.5,67.5C144.7,247.5,148.3,245.8,152.3,244.4z"/>
		</g>
		<path class="st6" d="M204.9,266.6c0.4,0,0.7-0.1,1.1-0.1l14.9-14.9c-5.2,1.2-11,2.2-17.3,2.9c-6.8,0.7-11.6-0.7-16.8-2.2
			c-6.5-1.9-13.8-4-24.2-1.6c-4.6,1.1-9.5,3-14.2,5.4l9.3,9.1c2.5-1.1,5.1-2,7.7-2.6c7.3-1.7,12-0.3,18,1.4
			C189.1,265.7,195.7,267.6,204.9,266.6z"/>
		<g>
			<path class="st7" d="M183.1,142.9c6.8,0,16.8,6.2,21.5,8.7l8.1-17.4c-9-5.8-21.5-10.7-34.3-9.7c-7.5,0.6-15.5,3.5-21.7,9
				l14.9,13.7C174.1,144.6,178,142.9,183.1,142.9z"/>
			<path class="st8" d="M192.6,214.4c-2.2,2.1-4.8,3.2-7.3,3.8l5.8,18.4c2.2-0.5,3.9-1,5.1-1.4c0.1,0,0.7-0.3,0.7-0.3
				c2.5-0.9,4.8-2,6.9-3.4v0c1.6-1.1,3.3-2.4,4.9-3.9L192.6,214.4z"/>
			<path class="st2" d="M179.5,219c-1.5,0-3.4-0.2-5.1-0.7l-0.2-0.1c-2.8-0.9-6.3-2.6-8.4-3.8c-2.1-1.2-8-5.1-11.8-7.7l-7.8,18.4
				c6.3,4,12.4,7.2,18.1,9.3c11.4,4.3,20.8,3.6,26.7,2.3l-5.8-18.4C182.9,218.9,180.7,219,179.5,219z"/>
			<path class="st9" d="M189,192.2L189,192.2l0.3,0.2l0.1,0c0.1,0.1,0.2,0.2,0.4,0.2c2.2,1.5,3.6,2.8,4.7,4.2c0.3,0.5,0.6,1,0.9,1.6
				c0.3,0.7,0.6,1.5,0.8,2.2l21.6-6.3c-0.7-2.7-1.6-4.8-2.8-6.6c-2.5-3.8-5.3-6.7-10.8-10l0,0c-2.3-1.5-5.4-2.8-8.9-4l-7.8,17.5
				C187.9,191.6,188.5,191.9,189,192.2z"/>
			<path class="st10" d="M187.3,191.3l7.8-17.5c-4.3-1.5-9.2-2.9-14.4-4.8l0.2,19.5c0.9,0.3,1.7,0.6,2.5,1
				C184.9,190,186.2,190.6,187.3,191.3z"/>
			<path class="st6" d="M195.9,209.3C195.9,209.4,195.9,209.4,195.9,209.3l-0.2,0.5l0,0l0,0.1c0,0,0,0.1,0,0.1
				c-0.8,1.8-1.8,3.2-3,4.3l16,13.3c5-4.7,9.2-11.6,9.9-22.2c0.2-4.6-0.1-8.2-0.9-11.1l-21.6,6.3
				C197.1,204.3,196.6,207.2,195.9,209.3z"/>
			<path class="st5" d="M171.6,147.2l-14.9-13.7c-1,0.9-1.9,1.8-2.8,2.8v0c-5.9,6.8-7.5,13.4-7.8,18.4l22,0.5
				C168.3,152.1,169.5,149.3,171.6,147.2z"/>
			<path class="st11" d="M168,156.1c0-0.1,0-0.2,0-0.2l0,0c0-0.2,0-0.4,0-0.6l-22-0.5c-0.2,2.8,0.1,5.1,0.3,6.6l0.2,1.2
				c0.6,3.5,1.7,6.5,3.3,8.9c1,1.4,2.1,2.8,3.2,4l17.4-12.4C168.8,161.1,168,158.9,168,156.1z"/>
			<path class="st12" d="M180.6,168.9L180.6,168.9c-1.1-0.4-2.2-0.9-3.2-1.4l-0.3-0.1c-2.1-1-3.9-2.1-5.5-3.3
				c-0.5-0.4-0.9-0.8-1.3-1.2l-17.4,12.4c1.5,1.6,3.2,3,5.1,4.2l1.1,0.7c3.3,2,7.8,4,12.1,5.1c3.4,0.9,6.7,2,9.7,3.1l-0.2-19.5
				C180.8,169,180.7,169,180.6,168.9z"/>
		</g>
	</g>
</g>
</svg>
